<svg width="23" height="24" viewBox="0 0 23 24" fill="none" xmlns="http://www.w3.org/2000/svg">
<g clip-path="url(#clip0_652_130)">
<path d="M8.99979 22C8.73457 22 8.48022 21.8946 8.29268 21.7071C8.10514 21.5196 7.99979 21.2652 7.99979 21C7.99979 20.7348 8.10514 20.4804 8.29268 20.2929C8.48022 20.1054 8.73457 20 8.99979 20H9.99979V17.999L4.99979 18C4.73459 17.9999 4.48028 17.8946 4.29279 17.707L2.29279 15.707C2.10532 15.5195 2 15.2652 2 15C2 14.7348 2.10532 14.4805 2.29279 14.293L4.29279 12.293C4.48028 12.1055 4.73459 12.0001 4.99979 12L9.99979 11.999V10H6.99979C6.73457 10 6.48022 9.89464 6.29268 9.70711C6.10514 9.51957 5.99979 9.26522 5.99979 9V5C5.99979 4.73478 6.10514 4.48043 6.29268 4.29289C6.48022 4.10536 6.73457 4 6.99979 4H9.99979V3C9.99979 2.73478 10.1051 2.48043 10.2927 2.29289C10.4802 2.10536 10.7346 2 10.9998 2C11.265 2 11.5194 2.10536 11.7069 2.29289C11.8944 2.48043 11.9998 2.73478 11.9998 3V4H17.9998C18.265 4.00006 18.5193 4.10545 18.7068 4.293L20.7068 6.293C20.8943 6.48053 20.9996 6.73484 20.9996 7C20.9996 7.26516 20.8943 7.51947 20.7068 7.707L18.7068 9.707C18.5193 9.89455 18.265 9.99994 17.9998 10H11.9998V11.999L12.9998 12C13.265 12 13.5194 12.1054 13.7069 12.2929C13.8944 12.4804 13.9998 12.7348 13.9998 13V17C13.9998 17.2652 13.8944 17.5196 13.7069 17.7071C13.5194 17.8946 13.265 18 12.9998 18L11.9998 17.999V20H12.9998C13.265 20 13.5194 20.1054 13.7069 20.2929C13.8944 20.4804 13.9998 20.7348 13.9998 21C13.9998 21.2652 13.8944 21.5196 13.7069 21.7071C13.5194 21.8946 13.265 22 12.9998 22H8.99979Z" fill="black"/>
</g>
<defs>
<clipPath id="clip0_652_130">
<rect width="24" height="24" fill="white" transform="translate(-1)"/>
</clipPath>
</defs>
</svg>
