<svg width="25" height="24" viewBox="0 0 25 24" fill="none" xmlns="http://www.w3.org/2000/svg">
<g clip-path="url(#clip0_391_187)">
<path d="M8.75409 4.76886C5.10982 4.76886 2.14502 7.73366 2.14502 11.3779C2.14502 15.0222 5.10982 17.987 8.75409 17.987C12.3984 17.987 15.3632 15.0222 15.3632 11.3779C15.3632 7.73366 12.3984 4.76886 8.75409 4.76886ZM8.75409 17.2095C5.53856 17.2095 2.92256 14.5934 2.92256 11.3779C2.92256 8.16245 5.53856 5.5464 8.75409 5.5464C11.9696 5.5464 14.5856 8.16245 14.5856 11.3779C14.5856 14.5934 11.9696 17.2095 8.75409 17.2095Z" fill="#4E4E4E"/>
<path d="M12.5733 13.314L10.4078 11.4192L11.8899 10.1224C12.266 9.79325 12.4913 9.31797 12.5079 8.81848C12.5245 8.31888 12.3314 7.82971 11.9779 7.47624C11.9772 7.47551 11.9763 7.47458 11.9753 7.4736C11.7984 7.29756 11.5541 7.20177 11.3044 7.20975C11.0541 7.2181 10.8159 7.331 10.6509 7.51952L8.75607 9.68507L7.45925 8.20293C7.13009 7.82675 6.6548 7.60147 6.15531 7.58484C5.65525 7.56768 5.16649 7.76134 4.8122 8.11569C4.63507 8.29281 4.5383 8.53794 4.54664 8.78836C4.55499 9.03868 4.66789 9.27686 4.85636 9.4418L7.02191 11.3366L5.53982 12.6334C5.16369 12.9626 4.93836 13.4379 4.92178 13.9374C4.90514 14.437 5.09828 14.9261 5.45175 15.2796C5.45247 15.2803 5.45341 15.2813 5.45434 15.2823C5.62426 15.4512 5.85627 15.5466 6.09534 15.5466C6.10529 15.5466 6.11525 15.5464 6.12525 15.5461C6.37557 15.5378 6.61375 15.4249 6.77874 15.2363L8.6736 13.0708L9.97043 14.5529C10.2996 14.9291 10.7749 15.1544 11.2744 15.171C11.2943 15.1717 11.3141 15.172 11.334 15.172C11.8126 15.172 12.2772 14.9804 12.6174 14.6402C12.7946 14.463 12.8913 14.2179 12.883 13.9675C12.8747 13.7171 12.7618 13.4789 12.5733 13.314ZM11.2362 8.03151C11.2687 7.99429 11.3091 7.98755 11.3303 7.98687C11.3519 7.9861 11.3923 7.99014 11.4273 8.02513C11.428 8.02575 11.4287 8.02648 11.4295 8.02725C11.6335 8.2319 11.7405 8.50363 11.7308 8.79251C11.7212 9.08201 11.5958 9.34648 11.3778 9.53718L9.85909 10.8661C9.73873 10.6073 9.53029 10.3976 9.27236 10.2758L11.2362 8.03151ZM8.75411 11.8185C8.51115 11.8185 8.3135 11.6209 8.3135 11.3779C8.3135 11.135 8.51115 10.9373 8.75411 10.9373C8.99706 10.9373 9.19471 11.135 9.19471 11.3779C9.19471 11.6209 8.99706 11.8185 8.75411 11.8185ZM5.32382 8.76244C5.32309 8.74124 5.32713 8.70045 5.36295 8.66463C5.56776 8.45977 5.83979 8.35268 6.1295 8.36196C6.41895 8.3716 6.68347 8.49694 6.87417 8.71491L8.23881 10.2745C7.98284 10.3945 7.77513 10.6009 7.65368 10.8561L5.36855 8.85663C5.33128 8.82408 5.32454 8.78364 5.32382 8.76244ZM6.19362 14.7243C6.16107 14.7616 6.12064 14.7683 6.09944 14.769C6.07787 14.7703 6.03744 14.7657 6.00245 14.7307C6.00183 14.7301 6.0011 14.7294 6.00027 14.7286C5.7963 14.5239 5.68931 14.2522 5.69895 13.9633C5.70859 13.6738 5.83393 13.4094 6.05195 13.2187L7.62735 11.8402C7.73548 12.1028 7.93277 12.3196 8.18137 12.4526L6.19362 14.7243ZM12.0668 14.0912C11.862 14.2961 11.5904 14.4041 11.3003 14.3939C11.0108 14.3842 10.7463 14.2589 10.5556 14.0409L9.2127 12.5061C9.4781 12.3978 9.697 12.1986 9.83053 11.9473L12.0613 13.8992C12.0985 13.9317 12.1053 13.9722 12.106 13.9933C12.1067 14.0146 12.1026 14.0554 12.0668 14.0912Z" fill="#4E4E4E"/>
<path d="M22.8534 2.69543H1.28968C0.617987 2.69543 0.0715332 3.24189 0.0715332 3.91358V18.8423C0.0715332 19.514 0.617987 20.0604 1.28968 20.0604H1.31559V20.5011C1.31559 20.9441 1.67601 21.3045 2.11905 21.3045H3.06422C3.41059 21.3045 3.71689 21.0837 3.82647 20.7551L4.05802 20.0604H20.085L20.3166 20.7551C20.4261 21.0837 20.7324 21.3045 21.0788 21.3045H22.024C22.4671 21.3045 22.8275 20.9441 22.8275 20.5011V20.0604H22.8534C23.5251 20.0604 24.0715 19.514 24.0715 18.8423V3.91358C24.0715 3.24189 23.5251 2.69543 22.8534 2.69543ZM3.08879 20.5092C3.08527 20.5198 3.07542 20.527 3.06422 20.527H2.11905C2.10474 20.527 2.09313 20.5153 2.09313 20.5011V20.0604H3.23839L3.08879 20.5092ZM22.0499 20.5011C22.0499 20.5153 22.0383 20.527 22.024 20.527H21.0788C21.0676 20.527 21.0578 20.5198 21.0543 20.5092L20.9047 20.0604H22.0499V20.5011ZM23.294 18.8423C23.294 19.0853 23.0963 19.2829 22.8534 19.2829H1.28968C1.04672 19.2829 0.849071 19.0853 0.849071 18.8423V3.91358C0.849071 3.67062 1.04672 3.47297 1.28968 3.47297H22.8534C23.0963 3.47297 23.294 3.67062 23.294 3.91358V18.8423Z" fill="#4E4E4E"/>
</g>
<defs>
<clipPath id="clip0_391_187">
<rect width="24" height="24" fill="white" transform="translate(0.0715332)"/>
</clipPath>
</defs>
</svg>
