<svg width="35" height="24" viewBox="0 0 35 24" fill="none" xmlns="http://www.w3.org/2000/svg">
<path d="M17.0715 12V3L21.9835 4.914C22.2635 5.02302 22.5095 5.20427 22.6966 5.4393C22.8837 5.67432 23.0052 5.95472 23.0486 6.25196C23.0921 6.5492 23.0561 6.85265 22.9442 7.13143C22.8323 7.4102 22.6485 7.65435 22.4115 7.839L17.0715 12Z" stroke="#4E4E4E" stroke-linecap="round" stroke-linejoin="round"/>
<path d="M17.0715 12H26.0715L24.1575 16.912C24.0485 17.1919 23.8673 17.438 23.6322 17.625C23.3972 17.8121 23.1168 17.9336 22.8196 17.9771C22.5223 18.0206 22.2189 17.9846 21.9401 17.8727C21.6613 17.7607 21.4172 17.5769 21.2325 17.34L17.0715 12Z" stroke="#4E4E4E" stroke-linecap="round" stroke-linejoin="round"/>
<path d="M17.0715 12H8.07153L9.98553 7.08797C10.0946 6.80805 10.2758 6.56202 10.5108 6.37492C10.7459 6.18783 11.0263 6.06635 11.3235 6.02286C11.6207 5.97936 11.9242 6.01541 12.203 6.12732C12.4817 6.23924 12.7259 6.42303 12.9105 6.65997L17.0715 12Z" stroke="#4E4E4E" stroke-linecap="round" stroke-linejoin="round"/>
<path d="M17.0714 12V21L12.1594 19.086C11.8795 18.977 11.6335 18.7957 11.4464 18.5607C11.2593 18.3257 11.1378 18.0453 11.0943 17.748C11.0508 17.4508 11.0869 17.1473 11.1988 16.8686C11.3107 16.5898 11.4945 16.3457 11.7314 16.161L17.0714 12Z" stroke="#4E4E4E" stroke-linecap="round" stroke-linejoin="round"/>
</svg>
