<svg width="25" height="24" viewBox="0 0 25 24" fill="none" xmlns="http://www.w3.org/2000/svg">
<path d="M13.0715 9C13.0715 8.73478 13.1769 8.48043 13.3644 8.29289C13.552 8.10536 13.8063 8 14.0715 8H20.0715C20.3367 8 20.5911 8.10536 20.7786 8.29289C20.9662 8.48043 21.0715 8.73478 21.0715 9V19C21.0715 19.2652 20.9662 19.5196 20.7786 19.7071C20.5911 19.8946 20.3367 20 20.0715 20H14.0715C13.8063 20 13.552 19.8946 13.3644 19.7071C13.1769 19.5196 13.0715 19.2652 13.0715 19V9Z" stroke="#4E4E4E" stroke-linecap="round" stroke-linejoin="round"/>
<path d="M18.0715 8V5C18.0715 4.73478 17.9662 4.48043 17.7786 4.29289C17.5911 4.10536 17.3368 4 17.0715 4H4.07153C3.80632 4 3.55196 4.10536 3.36443 4.29289C3.17689 4.48043 3.07153 4.73478 3.07153 5V17C3.07153 17.2652 3.17689 17.5196 3.36443 17.7071C3.55196 17.8946 3.80632 18 4.07153 18H13.0715" stroke="#4E4E4E" stroke-linecap="round" stroke-linejoin="round"/>
<path d="M16.0715 9H18.0715" stroke="#4E4E4E" stroke-linecap="round" stroke-linejoin="round"/>
</svg>
