<svg width="35" height="24" viewBox="0 0 35 24" fill="none" xmlns="http://www.w3.org/2000/svg">
<path d="M8.07153 12H9.07153M17.0715 3V4M25.0715 12H26.0715M10.6715 5.6L11.3715 6.3M23.4715 5.6L22.7715 6.3" stroke="#4E4E4E" stroke-linecap="round" stroke-linejoin="round"/>
<path d="M14.0715 16C13.232 15.3704 12.6119 14.4925 12.299 13.4908C11.9861 12.4892 11.9963 11.4144 12.3281 10.4189C12.66 9.4233 13.2967 8.55739 14.148 7.94379C14.9993 7.33019 16.0221 7 17.0715 7C18.1209 7 19.1438 7.33019 19.9951 7.94379C20.8464 8.55739 21.4831 9.4233 21.8149 10.4189C22.1468 11.4144 22.157 12.4892 21.8441 13.4908C21.5312 14.4925 20.9111 15.3704 20.0715 16C19.6811 16.3865 19.3871 16.8594 19.2134 17.3806C19.0397 17.9018 18.9911 18.4566 19.0715 19C19.0715 19.5304 18.8608 20.0391 18.4857 20.4142C18.1107 20.7893 17.602 21 17.0715 21C16.5411 21 16.0324 20.7893 15.6573 20.4142C15.2822 20.0391 15.0715 19.5304 15.0715 19C15.152 18.4566 15.1034 17.9018 14.9297 17.3806C14.7559 16.8594 14.462 16.3865 14.0715 16Z" stroke="#4E4E4E" stroke-linecap="round" stroke-linejoin="round"/>
<path d="M14.7715 17H19.3715" stroke="#4E4E4E" stroke-linecap="round" stroke-linejoin="round"/>
</svg>
