<svg width="24" height="24" viewBox="0 0 24 24" fill="none" xmlns="http://www.w3.org/2000/svg">
<g clip-path="url(#clip0_652_126)">
<path d="M9.78947 5C9.91214 4.99996 10.0326 5.03798 10.1381 5.11007C10.2437 5.18216 10.3305 5.28568 10.3895 5.40978L10.4244 5.49663L11.7928 9.44441C11.848 9.60324 11.8569 9.77843 11.8182 9.94361C11.7796 10.1088 11.6956 10.255 11.5787 10.3603L11.5103 10.414L10.3649 11.2067L10.408 11.288C10.9532 12.2868 11.6854 13.1318 12.5509 13.7609L12.6207 13.8099L13.3084 12.4897C13.3846 12.3429 13.5 12.2287 13.6374 12.1642C13.7747 12.0997 13.9265 12.0884 14.0699 12.1321L14.1486 12.1629L17.5696 13.742C17.6835 13.7944 17.7831 13.8812 17.858 13.9933C17.9329 14.1054 17.9803 14.2387 17.9952 14.3791L18 14.4747V17.6329C18 18.9412 17.0811 20.0016 15.9063 20C10.0365 19.5886 5.35716 14.1889 5 7.36867C4.99997 6.76449 5.20001 6.18314 5.55919 5.74356C5.91838 5.30397 6.40955 5.03939 6.93221 5.00395L7.05263 5H9.78947Z" fill="black"/>
</g>
<defs>
<clipPath id="clip0_652_126">
<rect width="24" height="24" fill="white"/>
</clipPath>
</defs>
</svg>
