<svg width="25" height="24" viewBox="0 0 25 24" fill="none" xmlns="http://www.w3.org/2000/svg">
<path d="M19.1213 0H5.02196C4.57892 0 4.21851 0.360415 4.21851 0.803456V23.1965C4.21851 23.6396 4.57892 24 5.02196 24H19.1213C19.5644 24 19.9248 23.6396 19.9248 23.1965V0.803456C19.9248 0.360415 19.5644 0 19.1213 0ZM4.99604 23.1965V0.803456C4.99604 0.789149 5.00765 0.777538 5.02196 0.777538H10.4388V23.2225H5.02196C5.00765 23.2225 4.99604 23.2109 4.99604 23.1965ZM19.1472 23.1965C19.1472 23.2109 19.1356 23.2225 19.1213 23.2225H11.2163V0.777538H19.1213C19.1356 0.777538 19.1472 0.789149 19.1472 0.803456V23.1965Z" fill="#4E4E4E"/>
<path d="M9.1688 7.04968C8.95409 7.04968 8.78003 7.22375 8.78003 7.43845V16.5616C8.78003 16.7763 8.95409 16.9503 9.1688 16.9503C9.3835 16.9503 9.55757 16.7763 9.55757 16.5616V7.43845C9.55757 7.22375 9.3835 7.04968 9.1688 7.04968Z" fill="#4E4E4E"/>
<path d="M12.4864 7.04968C12.2717 7.04968 12.0977 7.22375 12.0977 7.43845V16.5616C12.0977 16.7763 12.2717 16.9503 12.4864 16.9503C12.7011 16.9503 12.8752 16.7763 12.8752 16.5616V7.43845C12.8752 7.22375 12.7011 7.04968 12.4864 7.04968Z" fill="#4E4E4E"/>
<path d="M7.92485 9.53778H5.85142C5.63671 9.53778 5.46265 9.71185 5.46265 9.92655V14.0734C5.46265 14.2881 5.63671 14.4622 5.85142 14.4622H7.92485C8.13955 14.4622 8.31362 14.2881 8.31362 14.0734V9.92655C8.31362 9.71185 8.13955 9.53778 7.92485 9.53778ZM7.53608 10.3153V10.7818H6.24018V10.3153H7.53608ZM6.24018 13.6846V11.5594H7.53608V13.6846H6.24018Z" fill="#4E4E4E"/>
</svg>
